<svg xmlns="http://www.w3.org/2000/svg" viewBox="0 0 1440 320"  width="100%" height="100%" style="max-width: 800px; max-height: 400px; min-width: 400px; min-height: 200px;">
  <path fill="#ffb417" fill-opacity="1" d="M0,288L60,266.7C120,245,240,203,360,197.3C480,192,600,224,720,218.7C840,213,960,171,1080,170.7C1200,171,1320,213,1380,234.7L1440,256L1440,0L1380,0C1320,0,1200,0,1080,0C960,0,840,0,720,0C600,0,480,0,360,0C240,0,120,0,60,0L0,0Z" data-darkreader-inline-fill="" style="--darkreader-inline-fill: #0a78c2;"></path>
</svg>